<svg xmlns="http://www.w3.org/2000/svg" viewBox="0 0 100 100">
  <defs>
    <linearGradient id="g" x1="0" y1="0" x2="1" y2="1">
      <stop offset="0" stop-color="#00F2FE"/>
      <stop offset=".5" stop-color="#3B82F6"/>
      <stop offset="1" stop-color="#7928CA"/>
    </linearGradient>
  </defs>
  <rect width="100" height="100" rx="24" fill="#0B0F19"/>
  <path d="M50 12C29 12 12 29 12 50c0 21 17 38 38 38 21 0 38-17 38-38 0-14-9-25-22-29-8 6-18 8-28 5-4-5-9-9-14-12 2 2 6 6 9 10-8 2-15 6-20 12 2 2 6 6 9 10-5 3-9 7-12 12 2 2 6 6 9 10 4-6 10-11 16-15-6-4-10-10-12-17 10-4 21-6 33-5 6 5 10 12 10 20 0 6-2 11-6 15-2 5-6 9-11 11-8 0-15-6-17-13 8 1 15 3 21 8-2 6-5 11-10 15 3 1 6 2 10 2 8 0 15-3 20-8 5-5 8-12 8-20 0-8-3-15-8-20 8 1 16 4 22 9 2-5 3-10 3-15C100 29 83 12 62 12c-4 0-8 0-12 0z" fill="url(#g)"/>
  <circle cx="50" cy="50" r="14" fill="url(#g)"/>
</svg>
